<svg id="Layer_1" data-name="Layer 1" xmlns="http://www.w3.org/2000/svg" width="1950" height="258.02" viewBox="0 0 1950 258.02"><defs><style>.cls-1{fill:#ffeacc;}.cls-2{fill:#d53f00;}.cls-3{fill:none;stroke:#d53f00;stroke-miterlimit:10;}</style></defs><rect class="cls-1" width="1950" height="258.02"/><polygon class="cls-2" points="593.3 218.14 525.78 164.22 460.42 219.28 480.77 136.92 418.28 93.26 499.81 92.17 525.11 14.24 550.61 91.73 633.28 91.42 570.27 136.92 593.3 218.14"/><path class="cls-1" d="M516.57,16.8l24.55,74.59.22.69h.73l79.55-.3-60.48,43.68-.57.41.19.68,22.18,78.22-65.08-52-.65-.52-.62.53-63,53.08L473.2,136.5l.16-.66-.56-.4L412.85,93.56l78.43-1H492l.22-.68,24.36-75m0-3.22-25.3,77.93L409.73,92.6l62.5,43.66-20.35,82.37,65.35-55.06,67.52,53.92-23-81.23,63-45.5-82.66.31L516.56,13.58Z"/><path class="cls-1" d="M505.76,16.8l24.55,74.59.23.69h.73l79.55-.3-60.49,43.68-.56.41.19.68,22.18,78.22-65.09-52-.64-.52-.63.53-63,53.08,19.61-79.38.17-.66-.56-.4L402.05,93.56l78.42-1h.72l.22-.68,24.35-75m0-3.22-25.3,77.93L398.93,92.6l62.49,43.66-20.35,82.37,65.36-55.06L574,217.49l-23-81.23,63-45.5-82.67.31-25.5-77.49Z"/><polygon class="cls-3" points="598.31 218.14 530.79 164.22 465.43 219.28 485.78 136.92 423.29 93.26 504.82 92.17 530.12 14.24 555.62 91.73 638.29 91.42 575.28 136.92 598.31 218.14"/><polygon class="cls-3" points="604.74 218.14 537.22 164.22 471.86 219.28 492.22 136.92 429.72 93.26 511.25 92.17 536.55 14.24 562.05 91.73 644.72 91.42 581.71 136.92 604.74 218.14"/><polygon class="cls-2" points="721.67 96.69 714.76 92.44 709.3 98.32 710.25 90.41 703.92 87.06 711.51 86.02 712.97 78.47 716.24 85.4 723.94 84.42 718.59 89.38 721.67 96.69"/><path class="cls-2" d="M662,85.25,688,82q6.5-.8,10.37,2a10.5,10.5,0,0,1,4.46,7.53,10.11,10.11,0,0,1-1.64,7.14,11.09,11.09,0,0,1-4.47,3.6,12.69,12.69,0,0,1,7.62,3.12,11.08,11.08,0,0,1,3.16,6.84,12.24,12.24,0,0,1-.85,6.48,12,12,0,0,1-3.9,5,14.56,14.56,0,0,1-5.08,2.12,58.26,58.26,0,0,1-6.15,1.38l-23.95,3Zm16.18,15.88,6-.74q3.25-.4,4.38-1.68a4.11,4.11,0,0,0,.88-3.39,3.86,3.86,0,0,0-1.65-2.9c-.94-.63-2.46-.82-4.57-.56l-6.12.76Zm2.18,17.65,7.07-.87c2.39-.3,4-.93,4.9-1.9a4.3,4.3,0,0,0,1-3.6,4,4,0,0,0-1.85-3c-1.07-.68-2.82-.88-5.25-.58l-7.05.87Z"/><path class="cls-2" d="M708.72,100.7,722.63,99l3,24-13.91,1.72Z"/><path class="cls-2" d="M727.67,107.66l13.1-2.46a10.15,10.15,0,0,0,2.36,4.69,7.37,7.37,0,0,0,6.46,2,6.89,6.89,0,0,0,4.41-2,4,4,0,0,0-.71-6.37c-1.14-.79-3.61-1.37-7.43-1.72q-9.37-.93-13.69-3.85a11,11,0,0,1-5-8.19,11.75,11.75,0,0,1,1.2-6.78,13.39,13.39,0,0,1,5.43-5.59q3.81-2.27,10.83-3.12,8.61-1.07,13.52,1.58t6.64,9.52l-13,2.38a6.17,6.17,0,0,0-7.52-5,5.62,5.62,0,0,0-3.52,1.48,3.15,3.15,0,0,0-.91,2.64,2.51,2.51,0,0,0,1.25,1.81q1.08.77,4.86,1.08,9.33.84,13.52,2.36a13.83,13.83,0,0,1,6.35,4.27,12.65,12.65,0,0,1,2.61,6.43,14.42,14.42,0,0,1-1.41,8.26,15.1,15.1,0,0,1-6,6.35,27.3,27.3,0,0,1-10.59,3.22q-11.46,1.41-16.41-2.45A17.57,17.57,0,0,1,727.67,107.66Z"/><path class="cls-2" d="M766.53,72.35l42.18-5.2,1.37,11.09L795.93,80l4.17,33.83-13.88,1.71L782.05,81.7,767.9,83.44Z"/><path class="cls-2" d="M819.11,111.46l-5.54-44.91,23.13-2.86a34,34,0,0,1,10-.11,10.6,10.6,0,0,1,6,3.42A12.78,12.78,0,0,1,851,85.6,17.13,17.13,0,0,1,846.34,88a13.5,13.5,0,0,1,3.82,1.21,14,14,0,0,1,2.51,2.08A18.28,18.28,0,0,1,855,93.82L863.29,106l-15.68,1.93-9.12-12.81A10.43,10.43,0,0,0,835.56,92a5.86,5.86,0,0,0-3.53-.62l-1.23.15,2.25,18.23ZM829.75,83l5.85-.72a21.21,21.21,0,0,0,3.61-1.06,3.71,3.71,0,0,0,2.07-1.69A4.56,4.56,0,0,0,840,73.67q-1.51-1-5.32-.53l-6.09.76Z"/><path class="cls-2" d="M859.28,83.66q-1.37-11,4-17.88t16.31-8.23q11.21-1.38,18,3.89t8.15,16.11q1,7.88-1.06,13.24A19,19,0,0,1,898,99.58a25.42,25.42,0,0,1-12.14,4.34,28.93,28.93,0,0,1-12.87-.86,19.1,19.1,0,0,1-9-6.67Q860.26,91.54,859.28,83.66ZM873.16,82q.84,6.81,3.74,9.46a9.63,9.63,0,0,0,13.81-1.64q2.09-3.21,1.16-10.75-.78-6.35-3.7-9a8.82,8.82,0,0,0-7.3-2.07,8.51,8.51,0,0,0-6.38,3.8Q872.32,75.15,873.16,82Z"/><path class="cls-2" d="M668,139.78l54.62-6.86c9.11-1.14,16.07-.47,20.76,2.08s6.77,6.29,6.65,8.68c-.1,2-1.6,5.65-5,8.28q-3.4,2.64-10.09,4.16,10.21,1.31,15.07,5.07a11.59,11.59,0,0,1,4.86,9.35,9.18,9.18,0,0,1-3.43,7.33c-2.28,1.93-5.41,3.16-9.36,3.81a55.59,55.59,0,0,1-11.09.22c-6.58-.34-10.94-.68-13.09-.91q-25.2-2.78-50.37-5.93C667.71,163.4,666,151.32,668,139.78Zm28.72,13.28,12.7-.4c4.55-.15,7.71-.69,9.46-1.64a4.17,4.17,0,0,0,2.52-4c-.06-1.54-.89-1.47-2.63-1.87a35,35,0,0,0-9.24-.13l-12.89,1C696.4,148.59,696.62,149.4,696.75,153.06Zm.27,18.1c6,.37,8.93.55,14.88.9,5,.29,8.57.07,10.63-.73s3.09-2,3.09-3.64-1-2.8-3.09-3.77-5.63-1.48-10.74-1.53L697,162.2C697,166,697,167.87,697,171.16Z"/><path class="cls-2" d="M826,181q-16.58-.84-33.14-1.73a97.65,97.65,0,0,1-4.65,8.89q-14.91-1.4-29.8-2.9c14.76-17.29,25.74-41.25,36-61.35l31.83-4c10.54,25.18,23.17,50,35.06,74.6q-15.29-1.23-30.57-2.54C828.78,187.8,827.85,185.57,826,181Zm-6.07-15.55c-4.23-10.59-6.8-19.22-10.81-25.5-4.3,6.86-5.87,15.47-9.94,25.38C807.45,165.38,811.6,165.4,819.9,165.44Z"/><path class="cls-2" d="M871,114.24l54.63-6.9c9.1-1.15,16.07.46,20.81,4.88a21.76,21.76,0,0,1,6.83,16.27,25.42,25.42,0,0,1-5.07,14.89,23.35,23.35,0,0,1-10.13,7.08q10.21,2.21,15,8.48c3.22,4.18,4.84,9.55,4.85,15.84a25.55,25.55,0,0,1-3.43,13.43,21.37,21.37,0,0,1-9.36,8.5q-3.69,1.75-11.1,2.11A130.78,130.78,0,0,1,921,199q-25.22-1.82-50.41-3.8C870.66,168.22,870.06,141.23,871,114.24Zm28.89,30.61,12.7-.61q6.84-.33,9.48-2.84a9,9,0,0,0,2.57-7c0-2.77-.89-4-2.64-5.14s-4.84-1.59-9.26-1.2l-12.9,1.12C899.63,135.23,899.8,137.93,899.89,144.85Zm.19,35.21,14.89.42c5,.14,8.58-.6,10.64-2.28a8.58,8.58,0,0,0,3.09-7,8.39,8.39,0,0,0-3.08-6.74q-3.07-2.52-10.75-2.42l-14.82.16C900.08,169.5,900.09,173.13,900.08,180.06Z"/><path class="cls-2" d="M1031.59,94l29.12-3.68c-.34,23.71-.35,47.37-.26,71.08a71.89,71.89,0,0,1-2.59,19.89,39.24,39.24,0,0,1-8.2,15.5,28.41,28.41,0,0,1-11.71,8.41c-5.67,2-12.49,2.68-20.45,2.14a127.42,127.42,0,0,1-15-2,41.81,41.81,0,0,1-13.63-4.8,37.29,37.29,0,0,1-10-8.9,32.88,32.88,0,0,1-6.21-11.64,65.84,65.84,0,0,1-2.73-17.28c-.11-20.34-.11-40.6.33-60.93L999.32,98c-.43,21.94-.4,43.82-.31,65.77,0,5.93,1.45,10.48,4.31,13.81s6.82,5,11.89,5.15,9-1.44,11.83-4.78,4.29-8.2,4.27-14.56C1031.22,140.24,1031.19,117.12,1031.59,94Z"/><path class="cls-2" d="M1074.71,170.13c11.12-.92,16.67-1.4,27.79-2.39.61,6.08,1.83,10.68,3.68,13.87q4.52,7.74,12.89,8c4.17.11,7.39-1.12,9.64-3.76a14,14,0,0,0,3.39-9.37,14.48,14.48,0,0,0-3.24-9.21c-2.15-2.7-7.16-5.24-15-7.45-9.92-2.82-20.4-7.13-27.46-14.82-5.54-6-8.45-15.34-8.43-23.55a40.37,40.37,0,0,1,4.46-17.31,41.12,41.12,0,0,1,12.92-15.33c5.68-4.13,13.85-6.56,23.25-8.15,8.23-1.39,21.09,0,27.53,6.41,7.56,7.51,10.15,18.9,11,29.22-11,1.62-16.51,2.58-27.52,4.25-.78-6-2.25-9.37-4.56-11.75s-5.52-3.39-9.64-3a11.07,11.07,0,0,0-7.72,3.59,10.53,10.53,0,0,0-2.66,6.89,7,7,0,0,0,2.12,4.85c1.4,1.55,4.68,3,9.85,4.13,9.34,2.55,19.41,4.83,27.52,10.3a33,33,0,0,1,12.11,14.81,52.69,52.69,0,0,1,3.82,20.44,55.74,55.74,0,0,1-5,24c-3.35,7.12-8,12.24-14.06,15.45s-13.93,4.67-22.76,3.79c-12-1.2-25.26-3.37-33.39-13.67C1078.54,191.94,1075.34,181,1074.71,170.13Z"/><path class="cls-2" d="M1175.44,75.76l29.18-3.69c-.12,17-.43,34-.27,51l31.92-1.84c-.08-17.72.13-35.43.24-53.15l29.31-3.71c-.28,52.58-.08,105.16-.09,157.74q-14.65-1.11-29.33-2.17,0-30.49,0-61-16,.15-31.91.34,0,29.19,0,58.38-14.61-1-29.21-2C1175.31,169,1175,122.4,1175.44,75.76Z"/><path class="cls-2" d="M1285.34,61.88l29.18-3.68c-.08,21.15-.21,42.3-.15,63.44,10.37-22.38,20.82-44.69,30.71-67.29l38.81-4.89c-11.14,23.7-22.83,47.1-34.57,70.5q18.69,56,36.1,112.42-18-1.75-36-3.38-9.85-35.92-19.94-71.78c-5,9.43-10,18.84-15.07,28.19V226q-14.6-1.23-29.2-2.38C1285.27,169.69,1285.09,115.79,1285.34,61.88Z"/><path class="cls-2" d="M1453.15,206.8q-16.56-1.19-33.14-2.3-2.27,15.47-4.6,30.91-14.9-1.56-29.8-3c12.41-62.43,24.12-125,35.51-187.62l31.83-4q18.36,101.39,35.48,203-15.27-1.91-30.55-3.68Q1455.53,223.46,1453.15,206.8Zm-6.06-43.11q-5.16-35.17-10.46-70.33-5.12,35-10.28,70C1434.65,163.44,1438.79,163.52,1447.09,163.69Z"/><path class="cls-2" d="M666.63,183.81l5.14.48-.58,6.29,6-5.79,6.85.63-6.66,5.73,5.39,10.95-6.34-.58-2.87-7.18-2.92,2.54-.38,4.07-5.14-.48Z"/><path class="cls-2" d="M683.77,193.81a7.92,7.92,0,0,1,9.4-7.83,8.75,8.75,0,0,1,6.2,2.83,8.4,8.4,0,0,1,1.67,6.46,10.32,10.32,0,0,1-1.42,4.7,7,7,0,0,1-3.11,2.64,9.41,9.41,0,0,1-4.73.62,10.83,10.83,0,0,1-4.58-1.33,7.14,7.14,0,0,1-2.73-3.12A9.43,9.43,0,0,1,683.77,193.81Zm5.15.5a5.56,5.56,0,0,0,.6,3.71,3.57,3.57,0,0,0,5.12.5,6.22,6.22,0,0,0,1.26-3.79,5.13,5.13,0,0,0-.63-3.53,3.25,3.25,0,0,0-2.47-1.32,3.1,3.1,0,0,0-2.6.87A5.57,5.57,0,0,0,688.92,194.31Z"/><path class="cls-2" d="M703.1,204l1.54-16.66,8.58.79a12.58,12.58,0,0,1,3.61.75,3.86,3.86,0,0,1,1.89,1.7,4.59,4.59,0,0,1,.53,2.77,4.73,4.73,0,0,1-.81,2.34,4.59,4.59,0,0,1-1.78,1.48,6.07,6.07,0,0,1-1.87.49,5.47,5.47,0,0,1,1.28.74,5.3,5.3,0,0,1,.75,1,6.89,6.89,0,0,1,.62,1.11l2,5.05-5.82-.54-2.28-5.34a4,4,0,0,0-.81-1.37,2.17,2.17,0,0,0-1.23-.5l-.45-.05-.63,6.76Zm6.09-9.43,2.17.2a7.78,7.78,0,0,0,1.38-.1,1.39,1.39,0,0,0,.89-.45,1.69,1.69,0,0,0,0-2.22,3.11,3.11,0,0,0-1.88-.61l-2.26-.21Z"/><path class="cls-2" d="M720.75,200.06l4.92.15a3.73,3.73,0,0,0,.48,1.88,2.75,2.75,0,0,0,2.18,1.22,2.63,2.63,0,0,0,1.75-.36,1.54,1.54,0,0,0,.7-1.15,1.53,1.53,0,0,0-.46-1.21,6.59,6.59,0,0,0-2.54-1.21,11.26,11.26,0,0,1-4.65-2.47,4.08,4.08,0,0,1-1.15-3.35,4.35,4.35,0,0,1,1-2.35,4.85,4.85,0,0,1,2.4-1.59,10.38,10.38,0,0,1,4.16-.28,8.49,8.49,0,0,1,4.76,1.64,5.16,5.16,0,0,1,1.64,4l-4.88-.16a2.28,2.28,0,0,0-2.32-2.38,2.09,2.09,0,0,0-1.39.25,1.22,1.22,0,0,0-.54.89,1,1,0,0,0,.31.75,4.22,4.22,0,0,0,1.67.77,21.31,21.31,0,0,1,4.7,1.92,5.09,5.09,0,0,1,1.95,2,4.71,4.71,0,0,1,.44,2.53,5.31,5.31,0,0,1-1.16,2.87,5.45,5.45,0,0,1-2.67,1.82,10,10,0,0,1-4.07.33q-4.26-.39-5.74-2.18A6.42,6.42,0,0,1,720.75,200.06Z"/><path class="cls-2" d="M746.87,202l.32-3.46,7.95.73-.65,7.1a16.38,16.38,0,0,1-4.24,1.75,14.22,14.22,0,0,1-4.21.18,10.29,10.29,0,0,1-4.75-1.46,7,7,0,0,1-2.61-3.28,9.86,9.86,0,0,1-.61-4.69,9.6,9.6,0,0,1,1.57-4.64,7.28,7.28,0,0,1,3.57-2.75,10.65,10.65,0,0,1,4.64-.39,12.76,12.76,0,0,1,4.08.88,5.49,5.49,0,0,1,2.13,1.76,6.87,6.87,0,0,1,1.11,2.79l-5,.43a2.7,2.7,0,0,0-.9-1.54,3.27,3.27,0,0,0-1.83-.67,3.35,3.35,0,0,0-2.8.92,5.65,5.65,0,0,0-1.35,3.63,5.83,5.83,0,0,0,.66,4,3.54,3.54,0,0,0,2.72,1.42,5.43,5.43,0,0,0,1.67-.1,8.37,8.37,0,0,0,1.88-.68l.14-1.57Z"/><path class="cls-2" d="M767.82,207.2l-5.85-.54-1.06,2.67-5.26-.48,7.8-16.08,5.62.52,4.72,17.24-5.39-.5Zm-.74-3.7-1.28-6.16-2.38,5.82Z"/><path class="cls-2" d="M777,194l7.65.7a9.11,9.11,0,0,1,3.59,1,5.89,5.89,0,0,1,2.14,2,7.25,7.25,0,0,1,1.07,2.79,12.22,12.22,0,0,1,.11,3.27,11,11,0,0,1-1,4.08,6.69,6.69,0,0,1-1.91,2.31,5.48,5.48,0,0,1-2.44,1.11,11.72,11.72,0,0,1-3.11.17l-7.65-.71Zm4.8,4.25-.84,9.1,1.26.11a5.47,5.47,0,0,0,2.33-.14,2.46,2.46,0,0,0,1.18-1.15,7.92,7.92,0,0,0,.65-2.86,5.63,5.63,0,0,0-.52-3.7,3.69,3.69,0,0,0-2.78-1.25Z"/><path class="cls-2" d="M795.05,195.69,808.84,197l-.32,3.56-8.64-.8-.24,2.65,8,.74-.32,3.39-8-.74-.3,3.29,8.88.82-.35,3.77-14-1.3Z"/><path class="cls-2" d="M829.39,198.59l-1.57,16.94-4.68-.44,1-11.1a14,14,0,0,1-2.33,1.2,16.58,16.58,0,0,1-2.76.77l.35-3.79a11.18,11.18,0,0,0,3.84-1.49,7.47,7.47,0,0,0,2.29-2.45Z"/><path class="cls-2" d="M836.47,207.3a4.51,4.51,0,0,1-1.47-1.45,3.86,3.86,0,0,1-.48-2.31,4,4,0,0,1,2.29-3.24,7.25,7.25,0,0,1,4.15-.64,7.94,7.94,0,0,1,4.82,1.72,4,4,0,0,1,1.3,3.36,3.82,3.82,0,0,1-.83,2,5.43,5.43,0,0,1-1.63,1.27,4.61,4.61,0,0,1,1.85,1.9,4.38,4.38,0,0,1,.45,2.43,5,5,0,0,1-.79,2.28,4.66,4.66,0,0,1-1.56,1.54,5.72,5.72,0,0,1-2.16.68,11.94,11.94,0,0,1-2.68,0,10.1,10.1,0,0,1-4-1,4.6,4.6,0,0,1-2-2,5.27,5.27,0,0,1-.48-2.79,4,4,0,0,1,3.16-3.79Zm1.47,4.06a2.53,2.53,0,0,0,.5,1.87,2.11,2.11,0,0,0,1.47.84,2,2,0,0,0,1.55-.58,2.78,2.78,0,0,0,.33-3.6,2,2,0,0,0-3-.31A2.59,2.59,0,0,0,837.94,211.36Zm.91-7.14a1.88,1.88,0,0,0,.41,1.44,2,2,0,0,0,1.39.66,1.76,1.76,0,0,0,1.35-.4,1.84,1.84,0,0,0,.64-1.31,1.94,1.94,0,0,0-.4-1.45,1.91,1.91,0,0,0-1.32-.67,1.84,1.84,0,0,0-2.07,1.73Z"/><path class="cls-2" d="M849.26,212.88l4.94.46-.35,3.8a5.62,5.62,0,0,1-1.19,3.24,7.08,7.08,0,0,1-3.18,1.87l-.89-2.12a5.2,5.2,0,0,0,1.92-1.06,2.39,2.39,0,0,0,.68-1.38l-2.36-.22Z"/><path class="cls-2" d="M877.43,220.12l-13.88-1.29a8.58,8.58,0,0,1,1.8-3.73,19.59,19.59,0,0,1,4.94-3.86,13.36,13.36,0,0,0,2.81-2.06,2.58,2.58,0,0,0,.71-1.43,1.73,1.73,0,0,0-.45-1.35,2,2,0,0,0-1.36-.68,2,2,0,0,0-1.5.43,3.43,3.43,0,0,0-.94,1.89l-4.6-.8a7.42,7.42,0,0,1,1.28-3,4.68,4.68,0,0,1,2.21-1.49,9.37,9.37,0,0,1,3.72-.25,10.46,10.46,0,0,1,3.75.91,4.68,4.68,0,0,1,2,1.91,4.58,4.58,0,0,1,.53,2.66,5.28,5.28,0,0,1-1.16,2.82,12.21,12.21,0,0,1-3.52,2.75c-1,.55-1.66.95-2,1.18s-.73.53-1.2.9l7.23.67Z"/><path class="cls-2" d="M893,221.55l-13.88-1.28a8.67,8.67,0,0,1,1.8-3.74,19.82,19.82,0,0,1,4.94-3.86,13.43,13.43,0,0,0,2.81-2,2.63,2.63,0,0,0,.71-1.44,1.76,1.76,0,0,0-.45-1.35,2,2,0,0,0-1.36-.67,2,2,0,0,0-1.5.42,3.47,3.47,0,0,0-.94,1.9l-4.6-.8a7.36,7.36,0,0,1,1.28-3,4.61,4.61,0,0,1,2.21-1.49,9.19,9.19,0,0,1,3.72-.25,10.25,10.25,0,0,1,3.75.91,4.58,4.58,0,0,1,2.52,4.56,5.38,5.38,0,0,1-1.17,2.83,12.21,12.21,0,0,1-3.52,2.74c-1,.56-1.66.95-2,1.18s-.73.53-1.2.91l7.23.67Z"/><path class="cls-2" d="M895.7,213.34c.3-3.17,1.07-5.33,2.33-6.49a6.71,6.71,0,0,1,5.38-1.42,8.07,8.07,0,0,1,2.73.67,5.29,5.29,0,0,1,1.66,1.25,5.62,5.62,0,0,1,.94,1.49,6.94,6.94,0,0,1,.47,1.77,15.57,15.57,0,0,1,.11,3.93c-.28,3-1,5.19-2.15,6.49s-3,1.85-5.47,1.62a7.38,7.38,0,0,1-3.34-1,5.49,5.49,0,0,1-1.94-2.16,7.43,7.43,0,0,1-.71-2.6A18.33,18.33,0,0,1,895.7,213.34Zm4.59.43a11.56,11.56,0,0,0,.16,4.4,1.79,1.79,0,0,0,1.53,1.32,1.74,1.74,0,0,0,1.26-.38,3.08,3.08,0,0,0,.91-1.5,16.2,16.2,0,0,0,.55-3.3,11.44,11.44,0,0,0-.15-4.51,1.8,1.8,0,0,0-1.58-1.3,1.73,1.73,0,0,0-1.77,1A12.45,12.45,0,0,0,900.29,213.77Z"/><path class="cls-2" d="M911.22,214.77c.3-3.16,1.07-5.33,2.33-6.48a6.67,6.67,0,0,1,5.38-1.42,7.84,7.84,0,0,1,2.73.67,5.16,5.16,0,0,1,1.66,1.24,5.83,5.83,0,0,1,.94,1.5,7.12,7.12,0,0,1,.48,1.77,16.06,16.06,0,0,1,.1,3.93c-.28,3-1,5.18-2.15,6.49s-3,1.84-5.47,1.61a7.38,7.38,0,0,1-3.34-1,5.56,5.56,0,0,1-1.94-2.16,7.43,7.43,0,0,1-.71-2.61A18.33,18.33,0,0,1,911.22,214.77Zm4.59.44a11.56,11.56,0,0,0,.16,4.4,1.77,1.77,0,0,0,1.53,1.31,1.65,1.65,0,0,0,1.26-.38,3,3,0,0,0,.91-1.49,16.46,16.46,0,0,0,.55-3.31,11.46,11.46,0,0,0-.15-4.51,1.81,1.81,0,0,0-1.58-1.3,1.74,1.74,0,0,0-1.77,1A12.39,12.39,0,0,0,915.81,215.21Z"/><path class="cls-2" d="M936,208.74l5.15.48-.58,6.29,6-5.8,6.85.64-6.66,5.72,5.39,11-6.34-.59-2.88-7.17L940,221.81l-.37,4.06-5.15-.47Z"/><path class="cls-2" d="M955.41,210.53l9.64.89a5.26,5.26,0,0,1,3.59,1.54,3.88,3.88,0,0,1,1,3.07,3.72,3.72,0,0,1-1.15,2.45,4.15,4.15,0,0,1-1.9,1,4.72,4.72,0,0,1,2.51,1.72,4.15,4.15,0,0,1,.6,2.72,4.61,4.61,0,0,1-.82,2.28,4.55,4.55,0,0,1-1.8,1.48,5.55,5.55,0,0,1-2,.37,22.08,22.08,0,0,1-2.33,0l-8.89-.82Zm4.59,7,2.24.2a2.55,2.55,0,0,0,1.72-.26,1.53,1.53,0,0,0,.58-1.15,1.44,1.44,0,0,0-.37-1.18,2.53,2.53,0,0,0-1.6-.56l-2.28-.21Zm-.6,6.54,2.62.24a2.85,2.85,0,0,0,1.92-.3,1.59,1.59,0,0,0,.66-1.21,1.47,1.47,0,0,0-.43-1.24,3,3,0,0,0-1.85-.62l-2.61-.24Z"/><path class="cls-2" d="M973.53,212.21l5.14.47-.54,5.83,5.63.52.54-5.83,5.17.48-1.54,16.66-5.17-.48.62-6.74-5.63-.52-.62,6.74-5.15-.48Z"/><path class="cls-2" d="M1000.68,214.72l4.81.44,5.42,9.8.85-9.22,4.85.45-1.54,16.66-4.85-.45-5.39-9.72-.85,9.14-4.84-.44Z"/><path class="cls-2" d="M664.89,212.92a4.37,4.37,0,0,1-1.46-1.45,3.89,3.89,0,0,1-.46-2.32,4,4,0,0,1,2.3-3.22,7.22,7.22,0,0,1,4.16-.62,7.92,7.92,0,0,1,4.81,1.76,4,4,0,0,1,1.27,3.36,3.76,3.76,0,0,1-.84,2,5.35,5.35,0,0,1-1.64,1.26,4.66,4.66,0,0,1,1.84,1.91,4.32,4.32,0,0,1,.43,2.43,5,5,0,0,1-.8,2.28,4.77,4.77,0,0,1-1.58,1.53,5.6,5.6,0,0,1-2.16.66,12,12,0,0,1-2.68,0,10.39,10.39,0,0,1-4-1,4.56,4.56,0,0,1-1.94-2.05,5.26,5.26,0,0,1-.46-2.79,4.41,4.41,0,0,1,.93-2.41A4.34,4.34,0,0,1,664.89,212.92Zm1.44,4.07a2.52,2.52,0,0,0,.49,1.87,2.09,2.09,0,0,0,1.46.85,2,2,0,0,0,1.56-.56,2.79,2.79,0,0,0,.35-3.61,2.05,2.05,0,0,0-1.46-.85,2,2,0,0,0-1.58.53A2.6,2.6,0,0,0,666.33,217Zm1-7.14a1.88,1.88,0,0,0,.4,1.45,2,2,0,0,0,1.39.67,1.76,1.76,0,0,0,1.35-.39,1.84,1.84,0,0,0,.65-1.3,1.92,1.92,0,0,0-.39-1.46,1.85,1.85,0,0,0-1.31-.67,1.82,1.82,0,0,0-1.42.39A1.86,1.86,0,0,0,667.29,209.85Z"/><path class="cls-2" d="M678.46,206.49l13.5,1.35-.31,3.12a16.68,16.68,0,0,0-3.28,3.15,20.32,20.32,0,0,0-2.76,4.78,24.19,24.19,0,0,0-1.39,5l-4.61-.46a26.63,26.63,0,0,1,2.4-6.67,25.79,25.79,0,0,1,4.28-5.53l-8.22-.82Z"/><path class="cls-2" d="M714.66,213.88,710,214a2.55,2.55,0,0,0-.47-1.42,1.51,1.51,0,0,0-1-.5,1.92,1.92,0,0,0-1.86,1,10.46,10.46,0,0,0-1,3.43,5.9,5.9,0,0,1,1.82-1.08,4.92,4.92,0,0,1,2.06-.2,5,5,0,0,1,3.61,2,5.58,5.58,0,0,1,1.14,4.18,6,6,0,0,1-1.08,2.93,5.16,5.16,0,0,1-2.36,1.85,7.7,7.7,0,0,1-3.53.35,8.07,8.07,0,0,1-3.92-1.25,6,6,0,0,1-2.15-3,11.67,11.67,0,0,1-.41-5q.45-4.51,2.56-6.42a6.76,6.76,0,0,1,5.46-1.57,8.78,8.78,0,0,1,3.1.77,5,5,0,0,1,1.78,1.54A6,6,0,0,1,714.66,213.88Zm-9.25,6.57a3.08,3.08,0,0,0,.47,2.18,2.16,2.16,0,0,0,1.59.94,1.93,1.93,0,0,0,1.59-.55,3,3,0,0,0,.82-2,3.26,3.26,0,0,0-.42-2.21,2.07,2.07,0,0,0-1.51-.9,2.12,2.12,0,0,0-1.68.56A2.9,2.9,0,0,0,705.41,220.45Z"/><path class="cls-2" d="M719,210.53l11,1.09-.37,3.69-7.43-.74-.65,2.46a8.09,8.09,0,0,1,1.58-.39,6.39,6.39,0,0,1,1.51,0,5.59,5.59,0,0,1,3.91,1.91,5.1,5.1,0,0,1,1.17,4,6.45,6.45,0,0,1-1.1,3,5.47,5.47,0,0,1-2.5,2,7.84,7.84,0,0,1-3.84.41,11,11,0,0,1-2.79-.59,5.76,5.76,0,0,1-1.91-1.13,5.37,5.37,0,0,1-1.19-1.54,7.22,7.22,0,0,1-.66-2l4.73,0a2.85,2.85,0,0,0,.62,1.79,2.1,2.1,0,0,0,1.43.73,2,2,0,0,0,1.67-.57,3.32,3.32,0,0,0,.85-2.12,3.17,3.17,0,0,0-.42-2.25,2.21,2.21,0,0,0-1.62-.86,2.79,2.79,0,0,0-1.33.2,3.73,3.73,0,0,0-1.11.76l-3.88-1Z"/><path class="cls-2" d="M747,227l-8.43-.84.38-3.81,9.42-9.17,4,.4-1,10.23,2.09.21-.35,3.59-2.09-.21-.31,3.11-4-.4Zm.35-3.59.52-5.24-5,4.8Z"/><path class="cls-2" d="M759.94,219.46l-4.29-1.21a5.5,5.5,0,0,1,2.41-3,7.47,7.47,0,0,1,4.5-.67q3.26.31,4.59,1.68a3.84,3.84,0,0,1,1.15,3.2,3.4,3.4,0,0,1-.78,1.89,5.06,5.06,0,0,1-1.94,1.36,5.33,5.33,0,0,1,1.42.7,3.72,3.72,0,0,1,1.16,1.48,4.14,4.14,0,0,1,.26,2,5.7,5.7,0,0,1-1,2.72,5.1,5.1,0,0,1-2.4,1.83,8.28,8.28,0,0,1-3.83.35,9.87,9.87,0,0,1-3.53-.89,5.31,5.31,0,0,1-2-1.78,7.27,7.27,0,0,1-1-2.71l4.68-.15a3.68,3.68,0,0,0,.65,2,2.06,2.06,0,0,0,1.41.68,2,2,0,0,0,1.62-.52,2.69,2.69,0,0,0,.8-1.76,2.58,2.58,0,0,0-.42-1.85,2.11,2.11,0,0,0-1.56-.8,6.52,6.52,0,0,0-1.52.12l.57-3.28a3.21,3.21,0,0,0,.59.12,2.12,2.12,0,0,0,1.58-.43,1.82,1.82,0,0,0,.74-1.31,1.65,1.65,0,0,0-.33-1.26,1.73,1.73,0,0,0-1.21-.58,1.9,1.9,0,0,0-1.38.36A3,3,0,0,0,759.94,219.46Z"/><path class="cls-2" d="M791.08,234.51l-13.88-1.38a8.89,8.89,0,0,1,1.83-3.72,19.48,19.48,0,0,1,5-3.82,13.64,13.64,0,0,0,2.82-2,2.53,2.53,0,0,0,.72-1.43,1.75,1.75,0,0,0-.43-1.36,2.15,2.15,0,0,0-2.87-.26,3.46,3.46,0,0,0-1,1.89l-4.59-.84a7.37,7.37,0,0,1,1.3-3,4.77,4.77,0,0,1,2.22-1.48,9.45,9.45,0,0,1,3.72-.22,10.54,10.54,0,0,1,3.74.94,4.68,4.68,0,0,1,2,1.92,4.59,4.59,0,0,1,.52,2.66,5.4,5.4,0,0,1-1.18,2.82,12.42,12.42,0,0,1-3.55,2.72c-1,.55-1.66.94-2,1.16s-.74.53-1.21.9l7.22.72Z"/><path class="cls-2" d="M805.22,218.82l-1.69,16.93-4.67-.46,1.1-11.1a13.88,13.88,0,0,1-2.34,1.18,16.66,16.66,0,0,1-2.76.76l.38-3.79a11.51,11.51,0,0,0,3.85-1.47,7.34,7.34,0,0,0,2.3-2.43Z"/></svg>